# xmcd
#
# Track frame offsets: 
#        150
#        13740
#        27232
#        32970
#        50669
#        60565
#        86505
#        92429
#        117398
#        122456
#        138650
#        146963
#        165116
#        171770
#        195572
#        200808
#        216020
#        231150
#        245098
#        253041
#        268108
#        274551
#        293221
#        300397
#        321907
#
# Disc length: 4347 seconds
#
# Revision: 0
# Processed by: cddbd v1.5.2PL0 Copyright (c) Steve Scherf et al.
# Submitted via: ExactAudioCopy v1.3
#
DISCID=7110f919
DTITLE=Al Basile - Me and The Originator
DYEAR=2018
DGENRE=Blues
TTITLE0=The Trunk
TTITLE1=Poor Boy's Day
TTITLE2=What He Carried
TTITLE3=My J-O-B
TTITLE4=Useless Good Advice
TTITLE5=Lefty's Nine Lessons
TTITLE6=Self-Reliance
TTITLE7=She Made Me Believe It
TTITLE8=The Bee's Lot
TTITLE9=Here Comes Trouble
TTITLE10=What He Deserved
TTITLE11=I Forgot How To Care
TTITLE12=Learn To Draw
TTITLE13=First One To Go
TTITLE14=Breaking Up Is Hard To Do
TTITLE15=What You Got For Me
TTITLE16=Who Owns It
TTITLE17=All Right
TTITLE18=Solo
TTITLE19=A Go Of It
TTITLE20=Young And Old
TTITLE21=So Wrong For So Long
TTITLE22=Confessing The Blues
TTITLE23=It Goes, It Goes
TTITLE24=How It Goes
EXTD=
EXTT0=
EXTT1=
EXTT2=
EXTT3=
EXTT4=
EXTT5=
EXTT6=
EXTT7=
EXTT8=
EXTT9=
EXTT10=
EXTT11=
EXTT12=
EXTT13=
EXTT14=
EXTT15=
EXTT16=
EXTT17=
EXTT18=
EXTT19=
EXTT20=
EXTT21=
EXTT22=
EXTT23=
EXTT24=
PLAYORDER=
